<svg xmlns="http://www.w3.org/2000/svg" xmlns:xlink="http://www.w3.org/1999/xlink" width="60" height="20" viewBox="00 00 60 20">
  <defs>
    <path id="obj1" d="
      M 01.50 00.00
      L 04.50 00.00
      C 06.50 00.00 08.50 01.00 08.50 03.50
      L 08.50 06.50
      C 08.50 09.00 06.50 10.00 04.50 10.00
      L 01.50 10.00
      L 01.50 07.50
      L 04.50 07.50
      C 05.50 07.50 06.00 07.00 06.00 06.50
      L 06.00 03.50
      C 06.00 02.50 05.00 02.50 04.50 02.50
      L 03.50 02.50
      L 03.50 06.50
      L 01.50 04.00
      L 01.50 00.00
      Z
    "/>
    <path id="obj2" d="
      M 03.50 00.00
      L 06.50 00.00
      L 06.50 10.00
      L 03.50 10.00
      L 03.50 00.00
      Z
    "/>
    <path id="obj3" d="
      M 05.00 00.00
      C 06.00 00.00 07.50 00.50 08.50 01.50
      L 07.00 03.00
      C 06.00 02.00 04.00 02.00 04.00 03.00
      C 04.00 03.50 05.00 03.90 05.50 04.00
      C 07.00 04.50 08.50 05.00 08.50 07.00
      C 08.50 09.00 07.00 10.00 05.00 10.00
      C 04.50 10.00 02.50 09.50 01.50 08.50
      L 03.00 07.00
      C 04.00 08.00 06.00 08.00 06.00 07.00
      C 06.00 06.50 05.00 06.10 04.50 06.00
      C 03.00 05.50 01.50 05.00 01.50 03.00
      C 01.50 01.00 03.00 00.00 05.00 00.00
      Z
    "/>
    <path id="obj4" d="
      M 05.25 00.00
      C 06.50 00.00 08.00 00.50 08.75 02.25
      L 06.75 03.00
      C 06.00 01.75 04.00 02.25 04.00 03.50
      L 04.00 06.50
      C 04.00 07.75 06.25 08.00 06.75 06.75
      L 08.75 07.75
      C 08.00 09.25 06.50 10.00 05.25 10.00
      C 03.50 10.00 01.50 08.75 01.50 06.50
      L 01.50 03.50
      C 01.50 01.25 03.25 00.00 05.25 00.00
      Z
    "/>
    <path id="obj5" d="
      M 05.00 00.00
      C 07.00 00.00 08.50 01.00 08.50 03.50
      L 08.50 06.50
      C 08.50 09.00 07.00 10.00 05.00 10.00
      C 03.00 10.00 01.50 09.00 01.50 06.50
      L 01.50 03.50
      C 01.50 01.00 03.00 00.00 05.00 00.00
      Z

      M 05.00 02.50
      C 04.00 02.50 03.50 03.00 03.50 03.50
      L 03.50 06.50
      C 03.50 07.00 04.00 07.50 05.00 07.50
      C 06.00 07.50 06.50 07.00 06.50 06.50
      L 06.50 03.50
      C 06.50 03.00 06.00 02.50 05.00 02.50
      Z
    "/>
    <path id="obj6" d="
      M 01.50 00.00
      L 05.00 00.00
      C 07.00 00.00 08.50 01.00 08.50 03.50
      C 08.50 05.00 08.00 06.00 06.50 06.50
      L 08.50 10.00
      L 06.50 10.00
      L 04.00 07.00
      L 03.50 07.00
      L 03.50 10.00
      L 01.50 10.00
      L 01.50 00.00
      Z

      M 03.50 02.50
      L 03.50 04.50
      L 05.00 04.50
      C 06.50 04.50 06.50 02.50 05.00 02.50
      L 03.50 02.50
      Z
    "/>
  </defs>
  <g>
    <use x="00" y="00" fill="#72767d" fill-rule="nonzero" stroke="none" xlink:href="#obj1"/>
    <use x="07" y="00" fill="#72767d" fill-rule="nonzero" stroke="none" xlink:href="#obj2"/>
    <use x="14" y="00" fill="#72767d" fill-rule="nonzero" stroke="none" xlink:href="#obj3"/>
    <use x="23" y="00" fill="#72767d" fill-rule="nonzero" stroke="none" xlink:href="#obj4"/>
    <use x="32" y="00" fill="#72767d" fill-rule="nonzero" stroke="none" xlink:href="#obj5"/>
    <use x="41" y="00" fill="#72767d" fill-rule="nonzero" stroke="none" xlink:href="#obj6"/>
    <use x="50" y="00" fill="#72767d" fill-rule="nonzero" stroke="none" xlink:href="#obj1"/>
  </g>
  <g>
    <use x="00" y="10" fill="#747f8d" fill-rule="nonzero" stroke="none" xlink:href="#obj1"/>
    <use x="07" y="10" fill="#747f8d" fill-rule="nonzero" stroke="none" xlink:href="#obj2"/>
    <use x="14" y="10" fill="#747f8d" fill-rule="nonzero" stroke="none" xlink:href="#obj3"/>
    <use x="23" y="10" fill="#747f8d" fill-rule="nonzero" stroke="none" xlink:href="#obj4"/>
    <use x="32" y="10" fill="#747f8d" fill-rule="nonzero" stroke="none" xlink:href="#obj5"/>
    <use x="41" y="10" fill="#747f8d" fill-rule="nonzero" stroke="none" xlink:href="#obj6"/>
    <use x="50" y="10" fill="#747f8d" fill-rule="nonzero" stroke="none" xlink:href="#obj1"/>
  </g>
</svg>
